<svg width="24" height="24" viewBox="0 0 24 24" fill="none" xmlns="http://www.w3.org/2000/svg"><g clip-path="url(#clip0_234_9664)"><path d="M11.3268 8.32338C11.3232 8.35219 11.3232 8.3849 11.3232 8.417C11.3232 8.54183 11.3481 8.66186 11.3932 8.77229L11.4334 8.85511L11.5924 9.262L12.4185 11.3694L13.139 13.2097C13.3445 13.5812 13.6737 13.8729 14.0707 14.0283L14.194 14.0736C14.1988 14.0751 14.2069 14.0751 14.2135 14.0769L16.1883 14.756V14.7575L16.9433 15.0168L16.9949 15.0342C16.9967 15.0342 16.9997 15.036 17.0015 15.036C17.1503 15.0735 17.2962 15.1239 17.4354 15.1854C17.7574 15.3243 18.0493 15.5224 18.2987 15.7639C18.3992 15.86 18.4916 15.9635 18.5772 16.0739C18.65 16.1666 18.7165 16.2641 18.7764 16.3656C19.0399 16.8031 19.1911 17.3174 19.1911 17.865C19.1911 17.9629 19.1863 18.0574 19.1764 18.1534C19.1731 18.1957 19.168 18.2365 19.1617 18.277V18.2803C19.1551 18.3233 19.147 18.3677 19.1389 18.4112C19.1305 18.4535 19.1227 18.4955 19.1131 18.5375C19.1116 18.5423 19.1098 18.5474 19.108 18.5522C19.099 18.5948 19.0876 18.6368 19.0759 18.6791C19.0654 18.7191 19.0522 18.7602 19.0375 18.7989C19.0245 18.8412 19.0094 18.8829 18.9922 18.9237C18.9775 18.9657 18.9601 19.0083 18.9406 19.0485C18.8871 19.1719 18.8235 19.2904 18.7521 19.4035C18.66 19.5521 18.5549 19.6922 18.4379 19.8221C19.3646 18.8259 19.9806 17.5395 20.1339 16.1159C20.1597 15.8825 20.1729 15.6457 20.1729 15.4075C20.1729 15.2553 20.1663 15.1047 20.1564 14.9535C20.0397 13.2464 19.2625 11.7196 18.0763 10.63C17.7493 10.3273 17.3919 10.0578 17.0075 9.82914L16.2813 9.45795L12.6015 7.5696C12.4884 7.5211 12.3666 7.49619 12.2436 7.49638C11.767 7.49638 11.3737 7.85977 11.3268 8.32338Z" fill="#7F7F7F"></path><path d="M11.3268 8.32338C11.3232 8.35219 11.3232 8.3849 11.3232 8.417C11.3232 8.54183 11.3481 8.66186 11.3932 8.77229L11.4334 8.85511L11.5924 9.262L12.4185 11.3694L13.139 13.2097C13.3445 13.5812 13.6737 13.8729 14.0707 14.0283L14.194 14.0736C14.1988 14.0751 14.2069 14.0751 14.2135 14.0769L16.1883 14.756V14.7575L16.9433 15.0168L16.9949 15.0342C16.9967 15.0342 16.9997 15.036 17.0015 15.036C17.1503 15.0735 17.2962 15.1239 17.4354 15.1854C17.7574 15.3243 18.0493 15.5224 18.2987 15.7639C18.3992 15.86 18.4916 15.9635 18.5772 16.0739C18.65 16.1666 18.7165 16.2641 18.7764 16.3656C19.0399 16.8031 19.1911 17.3174 19.1911 17.865C19.1911 17.9629 19.1863 18.0574 19.1764 18.1534C19.1731 18.1957 19.168 18.2365 19.1617 18.277V18.2803C19.1551 18.3233 19.147 18.3677 19.1389 18.4112C19.1305 18.4535 19.1227 18.4955 19.1131 18.5375C19.1116 18.5423 19.1098 18.5474 19.108 18.5522C19.099 18.5948 19.0876 18.6368 19.0759 18.6791C19.0654 18.7191 19.0522 18.7602 19.0375 18.7989C19.0245 18.8412 19.0094 18.8829 18.9922 18.9237C18.9775 18.9657 18.9601 19.0083 18.9406 19.0485C18.8871 19.1719 18.8235 19.2904 18.7521 19.4035C18.66 19.5521 18.5549 19.6922 18.4379 19.8221C19.3646 18.8259 19.9806 17.5395 20.1339 16.1159C20.1597 15.8825 20.1729 15.6457 20.1729 15.4075C20.1729 15.2553 20.1663 15.1047 20.1564 14.9535C20.0397 13.2464 19.2625 11.7196 18.0763 10.63C17.7493 10.3273 17.3919 10.0578 17.0075 9.82914L16.2813 9.45795L12.6015 7.5696C12.4884 7.5211 12.3666 7.49619 12.2436 7.49638C11.767 7.49638 11.3737 7.85977 11.3268 8.32338Z" fill="url(#paint0_linear_234_9664)"></path><path d="M4.77459 0C4.25097 0.00930221 3.83057 0.437804 3.83057 0.961729V17.7375C3.83267 17.8545 3.83927 17.9701 3.84767 18.0874C3.85517 18.1492 3.86327 18.2134 3.87468 18.2758C4.11383 19.6223 5.28531 20.644 6.69985 20.644C7.19587 20.644 7.66098 20.5177 8.06787 20.298C8.07027 20.2962 8.07447 20.2938 8.07657 20.2938L8.22301 20.2053L8.81655 19.856L9.57153 19.408L9.57333 4.50257C9.57333 3.51203 9.07761 2.63883 8.31873 2.12C8.30073 2.1092 8.28332 2.0978 8.26742 2.0849L5.32972 0.163839C5.18089 0.0654155 5.00144 0.00360086 4.8091 0H4.77459Z" fill="#7F7F7F"></path><path d="M4.77459 0C4.25097 0.00930221 3.83057 0.437804 3.83057 0.961729V17.7375C3.83267 17.8545 3.83927 17.9701 3.84767 18.0874C3.85517 18.1492 3.86327 18.2134 3.87468 18.2758C4.11383 19.6223 5.28531 20.644 6.69985 20.644C7.19587 20.644 7.66098 20.5177 8.06787 20.298C8.07027 20.2962 8.07447 20.2938 8.07657 20.2938L8.22301 20.2053L8.81655 19.856L9.57153 19.408L9.57333 4.50257C9.57333 3.51203 9.07761 2.63883 8.31873 2.12C8.30073 2.1092 8.28332 2.0978 8.26742 2.0849L5.32972 0.163839C5.18089 0.0654155 5.00144 0.00360086 4.8091 0H4.77459Z" fill="url(#paint1_linear_234_9664)"></path><path d="M16.4233 15.3258L9.66896 19.3294L9.57174 19.3879V19.4092L8.81676 19.8563L8.22352 20.2065L8.07799 20.2944L8.06808 20.2992C7.66209 20.5198 7.19668 20.6446 6.70096 20.6446C5.28672 20.6446 4.11374 19.6235 3.87549 18.2764C3.98862 19.2619 4.32439 20.1792 4.83092 20.9783C5.87396 22.6248 7.63778 23.7701 9.67827 23.9691H10.926C12.0296 23.8539 12.9511 23.4119 13.9198 22.815L15.4093 21.904C16.0803 21.474 17.9014 20.4162 18.4379 19.8227C18.5547 19.6928 18.66 19.5535 18.7521 19.4044C18.8235 19.291 18.8872 19.1725 18.9406 19.0491C18.9586 19.0071 18.9757 18.9663 18.9922 18.9246C19.0078 18.8832 19.0225 18.8415 19.0375 18.7992C19.0654 18.7181 19.0876 18.6368 19.1089 18.5531C19.1197 18.5054 19.1296 18.4583 19.1395 18.4115C19.1719 18.2347 19.1896 18.0532 19.1896 17.865C19.1896 17.3174 19.0384 16.8031 18.7764 16.3662C18.7164 16.2642 18.6504 16.1666 18.5772 16.0745C18.4917 15.9635 18.3992 15.8606 18.2987 15.7645C18.0494 15.523 17.7583 15.3249 17.4354 15.1857C17.2962 15.1242 17.1509 15.0735 17.0015 15.0366C16.9997 15.0366 16.9967 15.0348 16.9949 15.0348L16.9433 15.0174L16.4233 15.3258Z" fill="#7F7F7F"></path><path d="M16.4233 15.3258L9.66896 19.3294L9.57174 19.3879V19.4092L8.81676 19.8563L8.22352 20.2065L8.07799 20.2944L8.06808 20.2992C7.66209 20.5198 7.19668 20.6446 6.70096 20.6446C5.28672 20.6446 4.11374 19.6235 3.87549 18.2764C3.98862 19.2619 4.32439 20.1792 4.83092 20.9783C5.87396 22.6248 7.63778 23.7701 9.67827 23.9691H10.926C12.0296 23.8539 12.9511 23.4119 13.9198 22.815L15.4093 21.904C16.0803 21.474 17.9014 20.4162 18.4379 19.8227C18.5547 19.6928 18.66 19.5535 18.7521 19.4044C18.8235 19.291 18.8872 19.1725 18.9406 19.0491C18.9586 19.0071 18.9757 18.9663 18.9922 18.9246C19.0078 18.8832 19.0225 18.8415 19.0375 18.7992C19.0654 18.7181 19.0876 18.6368 19.1089 18.5531C19.1197 18.5054 19.1296 18.4583 19.1395 18.4115C19.1719 18.2347 19.1896 18.0532 19.1896 17.865C19.1896 17.3174 19.0384 16.8031 18.7764 16.3662C18.7164 16.2642 18.6504 16.1666 18.5772 16.0745C18.4917 15.9635 18.3992 15.8606 18.2987 15.7645C18.0494 15.523 17.7583 15.3249 17.4354 15.1857C17.2962 15.1242 17.1509 15.0735 17.0015 15.0366C16.9997 15.0366 16.9967 15.0348 16.9949 15.0348L16.9433 15.0174L16.4233 15.3258Z" fill="url(#paint2_linear_234_9664)"></path><path opacity="0.15" d="M19.1896 17.865C19.1896 18.0532 19.1719 18.235 19.1392 18.4118C19.1296 18.4586 19.1197 18.5054 19.1086 18.5528C19.0876 18.6368 19.0654 18.7181 19.0375 18.7995C19.0228 18.8415 19.0078 18.8835 18.9922 18.9243C18.976 18.9663 18.9586 19.0071 18.9403 19.0491C18.8868 19.1721 18.824 19.2907 18.7524 19.4041C18.6604 19.5527 18.5552 19.6927 18.4379 19.8224C17.9014 20.4162 16.0803 21.474 15.4093 21.904L13.9198 22.815C12.8278 23.4878 11.7962 23.964 10.4951 23.9967C10.4335 23.9985 10.3732 24 10.3135 24C10.2295 24 10.1467 23.9985 10.0636 23.9952C7.86043 23.9112 5.93908 22.7274 4.83092 20.9783C4.31238 20.1614 3.98573 19.2377 3.87549 18.2764C4.11374 19.6235 5.28672 20.6446 6.70096 20.6446C7.19668 20.6446 7.66209 20.5195 8.06808 20.2992L8.07799 20.2941L8.22352 20.2065L8.81676 19.8563L9.57174 19.4092V19.3879L9.66896 19.3294L16.4233 15.3255L16.9433 15.0174L16.9949 15.0348C16.9964 15.0348 16.9997 15.0366 17.0015 15.0366C17.1509 15.0735 17.2965 15.1242 17.4354 15.1857C17.7583 15.3249 18.0491 15.523 18.2987 15.7645C18.3992 15.8607 18.4923 15.9643 18.5772 16.0745C18.6504 16.1666 18.7164 16.2642 18.7764 16.3662C19.0384 16.8031 19.1896 17.3174 19.1896 17.865Z" fill="#7F7F7F"></path><path opacity="0.15" d="M19.1896 17.865C19.1896 18.0532 19.1719 18.235 19.1392 18.4118C19.1296 18.4586 19.1197 18.5054 19.1086 18.5528C19.0876 18.6368 19.0654 18.7181 19.0375 18.7995C19.0228 18.8415 19.0078 18.8835 18.9922 18.9243C18.976 18.9663 18.9586 19.0071 18.9403 19.0491C18.8868 19.1721 18.824 19.2907 18.7524 19.4041C18.6604 19.5527 18.5552 19.6927 18.4379 19.8224C17.9014 20.4162 16.0803 21.474 15.4093 21.904L13.9198 22.815C12.8278 23.4878 11.7962 23.964 10.4951 23.9967C10.4335 23.9985 10.3732 24 10.3135 24C10.2295 24 10.1467 23.9985 10.0636 23.9952C7.86043 23.9112 5.93908 22.7274 4.83092 20.9783C4.31238 20.1614 3.98573 19.2377 3.87549 18.2764C4.11374 19.6235 5.28672 20.6446 6.70096 20.6446C7.19668 20.6446 7.66209 20.5195 8.06808 20.2992L8.07799 20.2941L8.22352 20.2065L8.81676 19.8563L9.57174 19.4092V19.3879L9.66896 19.3294L16.4233 15.3255L16.9433 15.0174L16.9949 15.0348C16.9964 15.0348 16.9997 15.0366 17.0015 15.0366C17.1509 15.0735 17.2965 15.1242 17.4354 15.1857C17.7583 15.3249 18.0491 15.523 18.2987 15.7645C18.3992 15.8607 18.4923 15.9643 18.5772 16.0745C18.6504 16.1666 18.7164 16.2642 18.7764 16.3662C19.0384 16.8031 19.1896 17.3174 19.1896 17.865Z" fill="url(#paint3_linear_234_9664)"></path></g><defs><linearGradient id="paint0_linear_234_9664" x1="12.4195" y1="8.5241" x2="20.0915" y2="17.0744" gradientUnits="userSpaceOnUse"><stop stop-color="#37BDFF"></stop><stop offset="0.25" stop-color="#26C6F4"></stop><stop offset="0.5" stop-color="#15D0E9"></stop><stop offset="0.75" stop-color="#3BD6DF"></stop><stop offset="1" stop-color="#62DCD4"></stop></linearGradient><linearGradient id="paint1_linear_234_9664" x1="7.09591" y1="20.2812" x2="6.84916" y2="1.30738" gradientUnits="userSpaceOnUse"><stop stop-color="#1B48EF"></stop><stop offset="0.5" stop-color="#2080F1"></stop><stop offset="1" stop-color="#26B8F4"></stop></linearGradient><linearGradient id="paint2_linear_234_9664" x1="11.5325" y1="19.4932" x2="30.1012" y2="19.4932" gradientUnits="userSpaceOnUse"><stop stop-color="#39D2FF"></stop><stop offset="0.5" stop-color="#248FFA"></stop><stop offset="1" stop-color="#104CF5"></stop></linearGradient><linearGradient id="paint3_linear_234_9664" x1="11.5325" y1="19.4932" x2="30.1012" y2="19.4932" gradientUnits="userSpaceOnUse"><stop stop-color="white"></stop><stop offset="1"></stop></linearGradient><clipPath id="clip0_234_9664"><rect width="24" height="24" fill="white"></rect></clipPath></defs></svg>