<?xml version="1.0" encoding="UTF-8"?>
<!DOCTYPE svg PUBLIC "-//W3C//DTD SVG 1.1//EN" "http://www.w3.org/Graphics/SVG/1.1/DTD/svg11.dtd">
<svg xmlns="http://www.w3.org/2000/svg" version="1.1" width="631px" height="631px" style="shape-rendering:geometricPrecision; text-rendering:geometricPrecision; image-rendering:optimizeQuality; fill-rule:evenodd; clip-rule:evenodd" xmlns:xlink="http://www.w3.org/1999/xlink">
<g><path style="opacity:0.987" fill="#e90100" d="M 314.5,-0.5 C 315.5,-0.5 316.5,-0.5 317.5,-0.5C 379.3,60.4659 441.3,121.299 503.5,182C 543.737,225.319 567.737,276.486 575.5,335.5C 575.113,336.72 574.28,337.387 573,337.5C 557.646,307.157 533.813,286.324 501.5,275C 483.003,269.376 464.336,264.376 445.5,260C 405.817,249.275 372.651,228.442 346,197.5C 330.556,176.599 320.556,153.266 316,127.5C 314.539,84.8633 314.039,42.1966 314.5,-0.5 Z"/></g>
<g><path style="opacity:0.991" fill="#3cc7f8" d="M 227.5,488.5 C 227.973,489.906 228.973,490.573 230.5,490.5C 231.167,490.5 231.5,490.833 231.5,491.5C 300.934,546.172 379.6,566.339 467.5,552C 488.724,549.384 507.057,540.884 522.5,526.5C 480.579,581.478 425.246,614.978 356.5,627C 346.044,628.439 335.711,629.606 325.5,630.5C 318.5,630.5 311.5,630.5 304.5,630.5C 210.434,623.569 138.6,580.235 89,500.5C 54.4672,438.916 44.8005,373.582 60,304.5C 70.8152,259.192 91.8152,219.525 123,185.5C 165.862,142.971 209.029,100.804 252.5,59C 253.448,58.5172 254.448,58.3505 255.5,58.5C 248.016,102.611 253.849,144.945 273,185.5C 287.085,214.899 305.085,241.565 327,265.5C 344.113,283.283 361.779,300.283 380,316.5C 399.688,346.761 401.022,377.761 384,409.5C 364.398,438.046 337.231,450.546 302.5,447C 287.511,444.741 274.511,438.574 263.5,428.5C 263.887,427.28 264.72,426.613 266,426.5C 284.474,430.596 296.474,423.596 302,405.5C 303.713,395.18 300.88,386.347 293.5,379C 254.736,349.222 222.736,313.889 197.5,273C 164.943,317.515 157.443,366.015 175,418.5C 185.965,446.777 203.465,470.111 227.5,488.5 Z"/></g>
<g><path style="opacity:0.99" fill="#1652d8" d="M 522.5,526.5 C 507.057,540.884 488.724,549.384 467.5,552C 379.6,566.339 300.934,546.172 231.5,491.5C 283.563,523.1 336.563,524.6 390.5,496C 451.257,455.103 474.091,398.603 459,326.5C 456.15,316.284 452.317,306.45 447.5,297C 447.734,295.268 448.734,294.434 450.5,294.5C 488.754,301.371 520.921,319.038 547,347.5C 569.681,376.919 575.681,409.585 565,445.5C 555.497,475.183 541.33,502.183 522.5,526.5 Z"/></g>
<g><path style="opacity:0.063" fill="#2064dd" d="M 227.5,488.5 C 229.027,488.427 230.027,489.094 230.5,490.5C 228.973,490.573 227.973,489.906 227.5,488.5 Z"/></g>
</svg>
